<?xml version="1.0" standalone="no"?>
<!DOCTYPE svg PUBLIC "-//W3C//DTD SVG 20010904//EN"
 "http://www.w3.org/TR/2001/REC-SVG-20010904/DTD/svg10.dtd">
<svg version="1.0" xmlns="http://www.w3.org/2000/svg"
width="1024.000000pt" height="1024.000000pt" viewBox="0 0 225.000000 225.000000"
 preserveAspectRatio="xMidYMid meet">

<g transform="translate(0.000000,225.000000) scale(0.100000,-0.100000)"
fill="#000000" stroke="none">
<path d="M620 1195 l0 -695 73 -1 c39 0 188 0 330 0 292 1 361 11 458 62 73
39 112 82 153 169 29 60 31 73 31 170 0 95 -3 111 -28 162 -32 66 -98 128
-162 155 -25 10 -45 21 -45 24 0 3 12 12 26 20 45 23 112 107 131 162 51 149
-13 323 -149 405 -90 54 -153 62 -505 62 l-313 0 0 -695z m661 506 c85 -26
129 -93 129 -194 0 -73 -22 -116 -78 -154 -51 -34 -119 -43 -327 -43 l-195 0
0 206 0 207 218 -6 c119 -3 233 -10 253 -16z m-73 -571 c131 -12 185 -37 226
-104 54 -87 47 -200 -18 -274 -62 -70 -91 -77 -363 -80 l-243 -4 0 230 c0 126
3 232 7 235 9 10 271 8 391 -3z"/>
</g>
</svg>
