<?xml version="1.0" standalone="no"?>
<!DOCTYPE svg PUBLIC "-//W3C//DTD SVG 20010904//EN"
 "http://www.w3.org/TR/2001/REC-SVG-20010904/DTD/svg10.dtd">
<svg version="1.0" xmlns="http://www.w3.org/2000/svg"
 width="1024.000000pt" height="1024.000000pt" viewBox="0 0 920.000000 920.000000"
 preserveAspectRatio="xMidYMid meet">

<g transform="translate(0.000000,920.000000) scale(0.100000,-0.100000)"
fill="#000000" stroke="none">
<path d="M4120 7883 c-935 -70 -1668 -406 -2207 -1012 -182 -204 -309 -396
-443 -666 -214 -432 -327 -873 -371 -1446 -15 -207 -7 -765 15 -949 44 -368
112 -667 217 -952 215 -585 584 -1078 1069 -1429 418 -303 888 -479 1485 -556
201 -26 842 -25 1060 1 471 56 902 168 1298 337 l147 63 0 509 c0 280 -3 507
-7 505 -5 -2 -87 -42 -183 -90 -433 -215 -850 -341 -1295 -393 -895 -104
-1625 134 -2082 678 -302 361 -475 802 -550 1407 -28 224 -25 774 5 1003 64
490 193 859 411 1183 456 678 1217 972 2221 858 434 -49 852 -176 1290 -393
96 -47 178 -87 183 -89 4 -2 7 228 7 511 l0 515 -112 48 c-460 194 -897 303
-1400 349 -147 13 -620 19 -758 8z"/>
</g>
</svg>
