<?xml version="1.0" standalone="no"?>
<!DOCTYPE svg PUBLIC "-//W3C//DTD SVG 20010904//EN"
 "http://www.w3.org/TR/2001/REC-SVG-20010904/DTD/svg10.dtd">
<svg version="1.0" xmlns="http://www.w3.org/2000/svg"
 width="1024.000000pt" height="1024.000000pt" viewBox="0 0 1024.000000 1024.000000"
 preserveAspectRatio="xMidYMid meet">

<g transform="translate(0.000000,1024.000000) scale(0.100000,-0.100000)"
fill="#000000" stroke="none">
<path d="M4727 8988 c-8 -24 -271 -747 -585 -1608 -1810 -4973 -1736 -4768
-1724 -4795 l12 -25 444 0 c415 0 445 1 451 18 3 9 144 411 313 892 l307 875
1365 0 1364 0 109 -310 c60 -170 198 -564 307 -875 109 -311 201 -573 205
-583 7 -16 36 -17 473 -15 l467 3 9 26 c7 21 -31 134 -224 665 -951 2613
-2090 5742 -2095 5757 -7 16 -44 17 -595 17 l-588 0 -15 -42z m782 -1390 c107
-299 346 -970 532 -1492 187 -522 339 -953 339 -958 0 -4 -484 -8 -1076 -8
-1021 0 -1076 1 -1069 18 7 17 422 1176 842 2350 125 347 229 632 233 632 3 0
93 -244 199 -542z"/>
</g>
</svg>
