<?xml version="1.0" standalone="no"?>
<!DOCTYPE svg PUBLIC "-//W3C//DTD SVG 20010904//EN"
 "http://www.w3.org/TR/2001/REC-SVG-20010904/DTD/svg10.dtd">
<svg version="1.0" xmlns="http://www.w3.org/2000/svg"
 width="1024.000000pt" height="1024.000000pt" viewBox="0 0 301.000000 167.000000"
 preserveAspectRatio="xMidYMid meet">

<g transform="translate(0.000000,167.000000) scale(0.100000,-0.100000)"
fill="#000000" stroke="none">
<path d="M1375 1604 c-157 -33 -255 -84 -355 -184 -87 -86 -145 -188 -182
-316 -20 -68 -23 -101 -22 -244 0 -138 4 -178 22 -244 85 -305 282 -473 608
-516 202 -26 507 57 665 182 l49 38 0 295 0 295 -315 0 -315 0 0 -125 0 -125
169 0 168 0 -1 -89 c-1 -73 -5 -93 -20 -110 -31 -34 -147 -87 -232 -106 -68
-15 -89 -16 -149 -6 -168 28 -271 116 -327 279 -20 60 -23 86 -23 237 0 163 1
173 28 242 44 112 107 180 207 225 33 15 74 22 150 25 91 4 113 2 162 -17 71
-26 136 -88 168 -158 17 -37 28 -51 39 -48 9 3 73 14 142 27 l126 22 -12 46
c-50 189 -199 322 -408 365 -70 15 -289 21 -342 10z"/>
</g>
</svg>
