<?xml version="1.0" standalone="no"?>
<!DOCTYPE svg PUBLIC "-//W3C//DTD SVG 20010904//EN"
 "http://www.w3.org/TR/2001/REC-SVG-20010904/DTD/svg10.dtd">
<svg version="1.0" xmlns="http://www.w3.org/2000/svg"
 width="330.000000pt" height="153.000000pt" viewBox="0 0 330.000000 153.000000"
 preserveAspectRatio="xMidYMid meet">

<g transform="translate(0.000000,153.000000) scale(0.100000,-0.100000)"
fill="#000000" stroke="none">
<path d="M1125 1243 c-80 -7 -192 -36 -262 -68 -163 -75 -326 -295 -310 -417
14 -105 116 -147 462 -188 172 -21 268 -41 315 -65 39 -20 65 -53 109 -140 51
-98 101 -146 171 -164 66 -17 76 -8 54 50 -50 135 -54 148 -45 171 22 58 24
58 406 44 260 -10 291 -5 392 61 56 37 160 142 189 192 15 25 25 31 53 31 135
0 261 96 261 199 l0 30 -36 -24 c-35 -23 -41 -24 -139 -18 l-103 6 -92 -87
c-50 -48 -103 -91 -116 -96 -73 -28 -136 -3 -365 147 -375 245 -511 306 -749
333 -83 10 -115 10 -195 3z m153 -539 c41 -28 18 -104 -31 -104 -49 0 -75 64
-40 102 20 22 42 23 71 2z"/>
<path d="M2388 967 c-3 -79 10 -112 56 -136 26 -14 28 -13 86 44 32 32 57 62
54 67 -3 4 -31 8 -63 8 -45 0 -66 5 -95 25 l-36 24 -2 -32z"/>
<path d="M570 645 c0 -14 35 -74 66 -111 63 -79 190 -145 343 -180 75 -17 441
-32 441 -18 -1 32 -19 36 -141 35 -281 -3 -510 68 -608 188 -59 73 -101 108
-101 86z"/>
<path d="M1758 423 c-103 -16 -108 -17 -108 -41 0 -17 4 -23 15 -19 8 4 106
17 217 31 112 14 217 27 233 29 17 2 -4 5 -45 6 -41 0 -104 3 -140 5 -36 3
-113 -3 -172 -11z"/>
</g>
</svg>
