<?xml version="1.0" standalone="no"?>
<!DOCTYPE svg PUBLIC "-//W3C//DTD SVG 20010904//EN"
 "http://www.w3.org/TR/2001/REC-SVG-20010904/DTD/svg10.dtd">
<svg version="1.0" xmlns="http://www.w3.org/2000/svg"
 width="512.000000pt" height="512.000000pt" viewBox="0 0 512.000000 512.000000"
 preserveAspectRatio="xMidYMid meet">

<g transform="translate(0.000000,512.000000) scale(0.100000,-0.100000)"
fill="#000000" stroke="none">
<path d="M4115 4793 c-223 -30 -410 -194 -485 -428 -59 -185 -88 -390 -126
-875 -40 -524 -123 -769 -350 -1040 -210 -251 -481 -392 -779 -407 -223 -11
-437 54 -705 213 -108 64 -235 166 -255 203 -34 67 -13 125 68 190 141 112
277 273 345 408 70 138 92 324 56 472 -17 72 -79 207 -117 258 l-24 33 -49
-73 c-72 -106 -179 -230 -286 -333 -115 -110 -144 -164 -159 -292 -6 -48 -7
-124 -3 -168 5 -67 3 -88 -12 -119 -21 -46 -67 -75 -117 -75 -56 0 -87 21
-150 99 -108 133 -243 233 -367 272 -49 15 -112 22 -250 29 -102 5 -221 16
-264 24 -44 9 -82 14 -84 11 -11 -10 34 -168 67 -240 85 -180 207 -293 396
-366 129 -50 239 -69 440 -76 259 -8 265 -13 276 -212 22 -359 160 -685 417
-982 255 -295 562 -482 957 -583 163 -42 288 -57 508 -63 l208 -6 97 66 c385
261 684 609 898 1044 47 95 94 177 104 183 46 24 112 -2 129 -51 10 -28 7 -42
-24 -116 -48 -118 -145 -296 -241 -440 -266 -398 -674 -760 -1074 -952 l-115
-55 55 -14 c30 -7 127 -16 215 -19 186 -6 313 9 520 62 339 87 609 240 856
485 227 227 339 435 399 747 51 264 31 612 -55 938 -48 185 -84 271 -251 610
-82 165 -174 361 -204 435 -52 129 -55 139 -55 225 0 81 3 94 27 129 14 21 62
63 105 93 78 55 143 111 143 123 0 4 -35 5 -77 2 -43 -2 -90 1 -105 7 -35 13
-61 63 -53 102 11 49 44 66 147 74 159 12 232 24 245 42 18 24 62 161 69 217
l7 49 -39 -7 c-170 -30 -289 -12 -464 69 -156 73 -279 96 -415 78z m230 -195
c15 -14 28 -38 32 -60 5 -32 1 -41 -25 -68 -61 -61 -152 -26 -152 59 0 75 89
117 145 69z m-610 -1542 c31 -32 41 -112 27 -235 -29 -252 -136 -471 -331
-674 -158 -165 -436 -357 -515 -357 -51 0 -86 36 -86 88 0 47 14 61 128 128
392 230 622 565 622 907 0 98 13 149 42 160 35 14 90 6 113 -17z"/>
</g>
</svg>
