<?xml version="1.0" standalone="no"?>
<!DOCTYPE svg PUBLIC "-//W3C//DTD SVG 20010904//EN"
 "http://www.w3.org/TR/2001/REC-SVG-20010904/DTD/svg10.dtd">
<svg version="1.0" xmlns="http://www.w3.org/2000/svg"
 width="320.000000pt" height="199.000000pt" viewBox="0 0 320.000000 199.000000"
 preserveAspectRatio="xMidYMid meet">

<g transform="translate(0.000000,199.000000) scale(0.100000,-0.100000)"
fill="#000000" stroke="none">
<path d="M1770 1915 c-36 -7 -119 -28 -185 -45 -141 -38 -184 -37 -365 6 -158
38 -267 39 -335 4 -42 -22 -61 -43 -117 -125 -71 -104 -93 -161 -139 -350 -41
-172 -84 -251 -156 -286 -112 -54 -253 39 -253 167 0 125 108 252 196 230 38
-10 33 36 -7 65 -63 45 -143 8 -225 -103 -146 -199 -91 -451 114 -528 73 -27
181 -40 264 -31 l68 7 -21 -22 -21 -22 31 -7 c17 -4 45 -4 61 0 42 9 131 93
178 168 22 34 46 68 54 75 9 7 54 22 102 33 l86 22 41 -28 42 -27 -6 -72 c-3
-39 -22 -154 -42 -256 -40 -204 -70 -389 -80 -493 -6 -65 -9 -71 -56 -119 -28
-28 -49 -58 -47 -67 2 -9 19 -21 38 -28 47 -16 189 -16 220 0 23 12 25 18 23
68 -5 92 122 391 264 625 l58 96 60 -5 c58 -4 84 -13 278 -99 67 -30 83 -33
212 -38 124 -5 145 -8 178 -29 48 -29 69 -72 97 -196 26 -114 52 -180 104
-256 41 -61 43 -75 19 -118 -27 -47 -10 -56 105 -56 105 0 142 7 165 30 13 13
11 31 -20 147 -27 102 -36 161 -40 253 -5 115 -3 128 37 300 23 99 44 206 47
238 3 31 9 57 12 57 3 0 17 -55 30 -123 50 -256 134 -470 231 -587 l21 -25
-20 42 c-72 146 -116 325 -171 696 -55 369 -99 458 -284 582 -91 60 -185 103
-362 164 -226 77 -346 94 -484 66z"/>
<path d="M1568 823 c-8 -10 -47 -72 -87 -138 l-73 -120 6 -59 c3 -32 22 -97
42 -145 48 -113 49 -123 29 -173 -16 -40 -16 -43 2 -56 13 -10 38 -12 94 -8
114 8 169 35 169 83 0 13 -23 68 -52 123 -60 114 -60 118 -45 373 l9 137 -40
0 c-25 0 -44 -6 -54 -17z"/>
<path d="M2139 673 c-21 -56 -39 -151 -49 -268 -13 -150 -15 -160 -46 -200
-53 -70 -23 -90 131 -89 164 0 186 10 162 74 -10 25 -8 45 10 113 21 78 21 87
8 152 -35 167 -63 214 -136 235 -53 16 -69 12 -80 -17z"/>
</g>
</svg>
