<?xml version="1.0" standalone="no"?>
<!DOCTYPE svg PUBLIC "-//W3C//DTD SVG 20010904//EN"
 "http://www.w3.org/TR/2001/REC-SVG-20010904/DTD/svg10.dtd">
<svg version="1.0" xmlns="http://www.w3.org/2000/svg"
 width="960.000000pt" height="610.000000pt" viewBox="0 0 960.000000 610.000000"
 preserveAspectRatio="xMidYMid meet">

<g transform="translate(0.000000,610.000000) scale(0.100000,-0.100000)"
fill="#000000" stroke="none">
<path d="M5495 6089 c-55 -6 -282 -30 -505 -54 -223 -25 -499 -54 -615 -65
-115 -12 -268 -27 -339 -35 -91 -10 -134 -11 -148 -4 -13 7 -46 7 -106 0 -145
-17 -271 -21 -642 -20 -707 1 -995 -9 -1140 -41 -47 -10 -112 -21 -145 -24
-102 -9 -380 -114 -440 -165 -11 -10 -69 -46 -129 -81 -61 -36 -128 -82 -150
-103 -23 -22 -72 -63 -111 -91 -134 -100 -452 -407 -578 -557 -57 -69 -133
-191 -191 -307 -48 -97 -90 -220 -120 -357 -14 -66 -38 -167 -53 -225 -53
-215 -63 -269 -74 -422 -13 -162 -3 -359 22 -482 15 -68 56 -154 80 -167 17
-9 26 -5 55 26 19 20 37 47 40 61 9 35 21 30 45 -18 81 -159 177 -492 214
-743 22 -151 39 -184 145 -285 l89 -85 1 -265 c0 -283 3 -314 46 -517 38 -176
41 -170 -136 -300 -66 -49 -102 -99 -115 -160 -5 -27 -2 -34 20 -49 21 -14 48
-17 138 -16 101 1 116 -1 150 -22 31 -19 45 -22 75 -15 61 13 126 39 150 62
20 19 27 20 70 10 26 -6 85 -27 132 -47 106 -45 141 -46 169 -7 11 15 25 40
31 55 12 31 36 43 60 29 29 -19 108 -4 131 25 51 65 33 94 -113 189 -75 49
-88 62 -88 85 0 15 -4 29 -9 32 -5 4 -4 22 2 43 15 53 24 542 11 577 -3 8 11
62 31 121 22 64 35 118 33 136 -4 28 -3 29 38 29 79 0 268 -71 281 -106 3 -9
1 -19 -5 -23 -7 -4 -8 -12 -2 -21 14 -22 12 -81 -6 -149 -16 -64 -9 -144 17
-194 21 -38 192 -207 211 -207 10 0 18 -4 18 -9 0 -6 25 -38 55 -73 31 -35 87
-109 126 -165 145 -212 224 -271 394 -294 70 -9 107 -9 170 1 105 16 186 16
321 0 105 -12 114 -12 179 9 38 11 80 21 95 21 35 0 56 19 63 56 9 50 -31 100
-111 135 -37 17 -76 41 -87 55 -16 19 -35 26 -99 35 -43 6 -89 8 -101 5 -47
-12 -89 11 -122 66 -18 29 -35 67 -39 83 -8 33 -98 189 -125 216 -15 15 -15
21 5 82 12 36 23 68 26 71 3 2 82 -9 175 -25 120 -21 220 -31 343 -36 252 -9
366 7 647 92 303 90 525 128 552 93 6 -7 15 -28 22 -47 6 -19 24 -55 40 -80
16 -25 64 -124 106 -220 42 -95 91 -202 109 -236 25 -47 35 -80 40 -138 5 -44
13 -81 21 -87 8 -6 17 -26 20 -43 4 -18 20 -55 36 -83 24 -42 30 -68 36 -143
7 -111 -7 -168 -71 -273 -13 -22 9 -87 41 -123 33 -35 62 -45 131 -45 65 0
161 40 201 84 14 14 29 26 35 26 6 0 32 -29 58 -64 39 -54 54 -67 89 -76 66
-18 105 -5 160 51 36 37 49 58 49 79 0 42 13 44 62 10 63 -43 243 -103 287
-95 41 8 122 47 145 70 24 24 19 64 -11 104 -16 20 -27 39 -25 44 1 4 -9 12
-23 17 -59 22 -22 30 144 30 166 0 170 0 188 24 18 22 24 23 153 24 120 0 142
3 201 26 37 14 69 23 71 20 7 -6 115 42 122 55 11 16 -41 89 -82 116 -20 13
-55 31 -77 38 -23 8 -64 29 -92 46 -29 18 -64 31 -83 31 -18 0 -47 8 -64 19
-17 10 -55 24 -85 31 -43 10 -67 24 -115 69 -34 31 -72 65 -86 76 -40 31 -42
42 -17 67 16 17 30 56 50 143 27 117 31 147 63 384 8 62 19 121 24 132 7 12 7
20 0 24 -18 11 -10 31 36 91 53 67 88 138 80 160 -3 9 12 48 34 88 22 40 40
82 40 94 0 16 16 29 75 57 41 19 86 35 100 35 14 0 41 6 60 14 54 23 66 4 105
-159 18 -77 42 -155 52 -172 27 -45 125 -132 217 -192 129 -85 118 -73 93
-106 -32 -41 -27 -53 8 -20 35 34 55 29 80 -22 12 -24 22 -30 47 -31 18 -1 47
-8 63 -17 l31 -16 -26 -30 c-25 -31 -33 -59 -15 -59 5 0 16 13 25 29 8 17 19
33 25 36 6 3 52 -16 103 -43 112 -61 294 -133 401 -161 66 -17 110 -21 252
-21 184 0 282 12 444 56 52 15 111 29 130 33 45 10 154 58 204 91 61 40 77 47
146 64 56 13 66 13 81 1 21 -20 30 -9 19 21 -8 20 -4 28 28 54 20 16 40 30 44
30 5 0 18 -20 30 -45 12 -25 26 -45 30 -45 11 0 10 12 -7 60 -20 57 -19 76 6
117 l22 35 48 -48 c27 -27 49 -43 49 -38 0 6 -18 39 -40 73 l-40 62 20 39 c11
22 24 40 29 40 4 0 25 -16 45 -36 20 -20 40 -34 43 -30 8 8 -24 55 -58 88 -20
18 -29 37 -29 57 0 28 3 31 29 31 45 0 45 15 1 44 -29 19 -40 33 -40 52 0 23
3 25 37 22 47 -4 56 18 11 30 -29 7 -33 13 -36 45 -2 20 -1 37 2 37 3 0 21
-10 41 -21 55 -33 54 -14 -3 37 -45 41 -52 52 -52 85 0 35 3 39 33 48 l32 9
-32 1 c-28 1 -33 5 -38 33 -3 18 -5 60 -3 93 l3 59 38 9 c49 12 48 24 -2 19
l-39 -4 -17 53 -18 52 34 29 34 29 -34 -16 c-37 -19 -37 -19 -80 50 l-30 50
22 17 c27 21 10 24 -19 3 -19 -13 -24 -12 -54 10 -18 13 -38 26 -44 28 -6 3
-1 16 14 32 l25 28 -32 -17 c-47 -24 -65 -20 -122 25 -68 54 -122 132 -221
319 -45 85 -92 173 -105 195 -29 51 -75 311 -75 421 0 67 6 92 35 164 33 80
62 189 67 257 3 42 -56 137 -114 184 -27 20 -74 50 -105 65 -56 26 -153 98
-153 113 0 4 18 13 39 20 48 14 134 104 176 183 42 80 21 112 -59 90 -183 -52
-194 -54 -225 -38 -16 9 -58 27 -93 40 -163 62 -244 98 -258 115 -8 10 -36 31
-62 45 -29 17 -45 32 -42 41 4 8 -12 24 -42 41 -26 15 -95 76 -153 134 -58 59
-140 129 -181 156 -41 27 -94 65 -116 84 -23 19 -101 66 -175 104 -74 38 -159
84 -189 102 -30 18 -89 42 -130 54 -41 11 -76 24 -78 30 -6 17 -378 130 -430
130 -13 0 -56 11 -95 24 -40 14 -122 34 -184 46 -61 11 -131 29 -155 39 -88
39 -384 65 -553 50z"/>
<path d="M9205 2900 c-3 -5 -2 -10 4 -10 5 0 13 5 16 10 3 6 2 10 -4 10 -5 0
-13 -4 -16 -10z"/>
</g>
</svg>
