<?xml version="1.0" standalone="no"?>
<!DOCTYPE svg PUBLIC "-//W3C//DTD SVG 20010904//EN"
 "http://www.w3.org/TR/2001/REC-SVG-20010904/DTD/svg10.dtd">
<svg version="1.0" xmlns="http://www.w3.org/2000/svg"
 width="920.000000pt" height="596.000000pt" viewBox="0 0 920.000000 596.000000"
 preserveAspectRatio="xMidYMid meet">

<g transform="translate(0.000000,596.000000) scale(0.100000,-0.100000)"
fill="#000000" stroke="none">
<path d="M6242 5940 c-11 -12 -23 -36 -26 -53 -11 -50 -25 -328 -26 -477 0
-177 -15 -294 -52 -410 -53 -168 -85 -205 -124 -145 -20 31 -28 158 -17 270
14 136 -29 430 -69 472 -32 34 -76 28 -104 -14 -19 -29 -20 -41 -16 -160 4
-123 -17 -443 -38 -578 -6 -33 -10 -110 -10 -171 0 -136 -24 -303 -51 -356
-47 -93 -122 -198 -140 -198 -5 0 -10 39 -11 87 -2 58 -7 88 -15 90 -7 3 -40
-21 -72 -52 -64 -61 -110 -150 -137 -267 -19 -82 -91 -272 -132 -351 -22 -43
-53 -83 -81 -107 -25 -21 -74 -63 -109 -92 -194 -164 -270 -209 -395 -233 -92
-17 -99 -22 -158 -95 -54 -65 -119 -117 -211 -165 -37 -20 -93 -58 -125 -85
-61 -52 -132 -87 -158 -77 -19 8 -19 36 1 132 20 97 9 149 -47 221 -27 36 -43
70 -53 115 -8 35 -23 100 -33 144 l-18 80 -58 31 c-78 41 -86 51 -103 124 -8
34 -24 76 -36 92 -21 30 -21 30 -3 108 21 93 15 124 -28 151 -37 24 -114 21
-165 -5 -17 -9 -33 -12 -36 -7 -3 5 2 48 10 96 12 61 14 99 8 124 -9 36 -9 36
-64 37 -38 0 -74 9 -114 27 -32 15 -66 27 -76 27 -38 0 -55 37 -57 128 -2 54
-7 90 -16 99 -7 7 -39 18 -72 23 -107 19 -105 18 -103 48 3 39 -6 48 -57 61
-52 13 -72 6 -104 -35 l-21 -27 0 38 c0 46 -34 105 -61 105 -33 0 -95 -37
-131 -79 l-34 -40 4 167 c4 156 3 169 -16 192 -18 22 -22 23 -38 10 -9 -8 -43
-68 -73 -132 l-56 -117 0 212 c-1 223 -6 257 -45 257 -27 0 -86 -74 -110 -137
-16 -43 -20 -79 -21 -181 l0 -127 -20 70 c-11 39 -38 127 -60 197 -39 126 -40
128 -80 149 -49 25 -116 29 -129 9 -14 -22 -12 -45 14 -160 29 -128 90 -319
121 -380 13 -25 53 -90 89 -145 36 -55 66 -106 66 -114 0 -8 -14 -26 -31 -41
-28 -23 -31 -30 -25 -61 16 -87 60 -124 313 -260 250 -134 314 -194 422 -393
83 -154 84 -156 90 -301 l6 -130 63 -132 c34 -73 67 -153 74 -178 12 -43 11
-47 -13 -71 -14 -14 -72 -43 -127 -64 -56 -21 -120 -52 -141 -69 -66 -53 -188
-188 -210 -235 -21 -43 -21 -45 -5 -122 9 -43 18 -82 20 -86 3 -4 -5 -71 -16
-148 -24 -158 -19 -216 23 -277 25 -38 70 -63 98 -56 25 7 28 13 34 68 5 53
21 76 108 154 115 103 92 96 193 60 49 -17 115 -45 147 -62 98 -52 177 -156
177 -234 0 -11 -7 -41 -16 -67 -14 -42 -28 -56 -98 -107 -191 -141 -191 -140
-228 -315 -29 -139 -37 -149 -144 -159 -43 -4 -146 -6 -229 -4 -243 6 -267 4
-326 -23 -65 -30 -106 -67 -115 -102 -5 -21 4 -44 39 -104 58 -101 73 -101 69
-1 -4 87 1 93 64 79 22 -5 76 -10 121 -12 46 -2 83 -4 83 -4 0 -1 -7 -18 -15
-37 -8 -20 -15 -43 -15 -50 0 -17 52 -85 79 -104 17 -11 18 -11 14 6 -7 28 24
86 65 122 29 26 41 30 70 25 55 -8 75 -36 82 -108 8 -77 -5 -135 -35 -154 -25
-16 -125 -22 -165 -9 l-25 8 20 -23 c26 -30 92 -60 131 -60 37 0 137 63 183
116 33 37 38 67 21 138 -6 27 -5 49 4 69 12 30 13 30 171 57 187 31 218 45
320 140 78 72 128 96 173 85 72 -18 70 -57 -14 -226 -64 -131 -66 -135 -77
-253 l-12 -120 -130 -34 c-95 -24 -156 -34 -228 -36 -57 -1 -102 -7 -109 -14
-6 -6 -11 -25 -11 -42 0 -26 -4 -30 -28 -30 -49 0 -78 -21 -103 -74 -34 -72
-53 -170 -38 -189 13 -15 84 -37 120 -37 20 0 21 -6 -3 132 l-4 27 67 -5 c52
-4 87 0 157 20 50 13 91 24 91 23 1 -1 -12 -40 -29 -87 -24 -67 -41 -94 -79
-133 l-48 -48 38 6 c112 19 172 59 187 123 3 16 20 42 36 58 27 26 38 29 102
31 40 1 75 2 78 2 13 2 29 56 35 121 l7 70 141 0 c168 0 261 12 295 38 20 14
28 32 34 73 11 75 36 171 49 186 20 25 35 13 92 -72 31 -47 72 -103 92 -124
35 -39 35 -39 69 -25 21 8 68 14 119 14 l85 0 21 -47 c36 -82 43 -86 135 -79
64 5 86 3 110 -10 101 -54 165 -84 183 -84 12 0 29 12 39 26 38 55 86 104 102
104 9 0 28 -18 43 -39 26 -37 71 -65 113 -73 17 -2 21 4 25 37 l5 40 43 -3
c64 -5 110 13 114 45 5 46 30 50 84 15 56 -38 66 -39 104 -10 26 19 44 22 127
23 112 2 216 30 250 67 29 32 63 131 63 183 0 37 3 45 19 45 39 0 79 22 91 50
15 36 6 63 -34 109 -18 20 -49 61 -69 92 -20 33 -56 71 -84 90 -48 33 -411
209 -554 268 -42 17 -103 52 -136 76 -32 24 -96 60 -141 79 -45 19 -98 46
-117 59 -54 37 -125 107 -135 133 -11 29 1 108 30 194 38 113 51 115 140 25
63 -64 136 -105 160 -90 6 4 22 32 35 62 23 51 27 55 52 50 16 -3 57 -11 93
-18 l66 -12 69 38 c39 22 76 47 83 57 9 13 26 18 57 18 61 0 74 7 91 50 29 71
139 110 314 110 142 0 180 16 250 104 33 42 60 64 100 82 40 19 85 56 170 142
100 101 117 124 128 166 7 26 40 107 73 180 83 179 89 225 29 258 -24 14 -30
24 -30 52 0 31 7 40 54 76 59 45 112 110 167 205 40 68 89 177 89 195 0 6 12
45 26 86 25 73 25 94 0 94 -25 0 -66 41 -66 66 0 20 11 29 64 54 60 29 66 34
81 79 15 45 14 50 -6 96 -19 42 -20 59 -14 136 7 99 1 109 -69 109 -48 0 -53
14 -21 60 15 21 24 44 20 49 -3 6 -26 11 -51 11 -29 0 -47 5 -50 14 -9 23 31
89 75 124 41 33 87 100 93 137 2 16 -2 19 -19 17 -17 -2 -26 4 -35 23 -10 23
-8 38 16 106 16 43 26 85 23 92 -3 9 -28 16 -60 20 -63 6 -117 31 -117 53 0 8
19 36 43 62 93 101 101 122 68 163 l-18 23 -98 -50 c-84 -43 -99 -54 -112 -87
-22 -53 -66 -87 -114 -87 -21 0 -39 4 -39 8 0 5 20 43 44 86 24 43 54 103 67
133 22 56 23 56 3 92 -40 76 -89 44 -168 -108 -57 -111 -102 -161 -143 -161
l-31 0 33 88 c18 48 40 105 48 127 33 86 87 264 102 333 24 115 20 166 -13
203 -38 43 -63 33 -106 -40 -38 -65 -108 -263 -126 -356 -17 -87 -26 -114 -97
-280 -60 -140 -85 -186 -98 -174 -2 3 1 45 8 95 20 147 14 476 -12 624 -26
149 -45 194 -83 198 -17 2 -33 -4 -46 -18z"/>
</g>
</svg>
