<?xml version="1.0" standalone="no"?>
<!DOCTYPE svg PUBLIC "-//W3C//DTD SVG 20010904//EN"
 "http://www.w3.org/TR/2001/REC-SVG-20010904/DTD/svg10.dtd">
<svg version="1.0" xmlns="http://www.w3.org/2000/svg"
 width="1662.000000pt" height="1870.000000pt" viewBox="0 0 1662.000000 1870.000000"
 preserveAspectRatio="xMidYMid meet">

<g transform="translate(0.000000,1870.000000) scale(0.100000,-0.100000)"
fill="#000000" stroke="none">
<path d="M7370 17940 c-990 -54 -2002 -465 -2575 -1044 -135 -137 -227 -264
-304 -421 -178 -361 -220 -752 -135 -1262 47 -289 122 -546 309 -1063 116
-319 145 -420 145 -496 0 -46 -4 -55 -30 -78 -72 -60 -197 -59 -530 4 -273 52
-438 67 -557 52 -112 -13 -157 -29 -321 -107 -461 -222 -891 -564 -948 -753
-16 -53 -6 -137 26 -209 l18 -42 -56 -16 c-116 -34 -186 -85 -254 -182 -45
-67 -80 -158 -121 -319 -42 -164 -76 -262 -124 -359 -122 -243 -314 -391 -626
-481 -53 -15 -95 -29 -93 -32 7 -6 187 28 261 49 93 28 197 76 287 134 90 59
221 189 277 275 46 71 47 62 9 -60 -85 -269 -251 -404 -586 -477 -145 -32
-137 -41 22 -23 444 49 672 263 739 695 9 55 21 156 27 225 6 69 15 150 21
180 28 138 112 225 252 261 46 11 47 11 97 -31 228 -191 614 -272 1215 -255
391 11 608 35 811 90 464 126 749 414 865 874 46 179 62 329 62 566 0 224 -9
344 -48 630 -42 320 -50 422 -49 705 0 298 12 424 60 640 128 573 446 953 944
1128 242 84 566 122 880 102 638 -41 993 -209 1101 -520 31 -91 31 -250 0
-370 -46 -173 -128 -339 -269 -545 -244 -356 -589 -711 -1132 -1165 -329 -274
-746 -708 -1066 -1110 -908 -1137 -1543 -2421 -1698 -3435 -54 -348 -49 -721
13 -1005 53 -245 170 -505 309 -690 97 -128 275 -302 402 -392 252 -178 727
-414 1081 -536 970 -335 1786 -205 2558 406 413 326 742 696 1426 1602 164
217 334 442 378 500 108 141 310 340 422 417 165 111 334 183 528 225 145 30
389 30 534 0 193 -42 373 -117 541 -228 122 -81 310 -271 395 -400 386 -583
328 -1337 -159 -2069 -305 -458 -789 -924 -1329 -1280 -1352 -891 -2908 -959
-4718 -204 -815 340 -1680 846 -2773 1620 -352 250 -461 319 -646 409 -442
216 -872 262 -1256 135 -668 -223 -1156 -931 -1302 -1890 -31 -199 -39 -618
-16 -835 48 -454 170 -833 367 -1140 566 -884 1936 -1501 3839 -1730 681 -81
1332 -97 2045 -50 536 35 783 43 1184 37 491 -7 717 -33 955 -112 373 -122
547 -338 534 -661 -5 -113 -35 -181 -109 -248 -162 -146 -413 -193 -1149 -216
-179 -6 -372 -15 -430 -20 -332 -32 -490 -93 -551 -212 -31 -61 -26 -71 24
-42 122 70 306 100 566 91 196 -7 211 -8 711 -77 195 -27 405 -55 465 -62 151
-17 568 -17 665 1 488 88 712 389 713 956 1 182 -12 279 -55 415 -72 228 -201
406 -406 560 -312 234 -781 386 -1447 469 -420 53 -749 69 -1570 81 -965 13
-1316 34 -1806 105 -992 145 -1712 453 -2233 955 -301 291 -558 670 -663 977
-33 98 -37 118 -37 218 -1 101 1 115 27 167 33 68 84 111 164 140 82 30 250
29 388 -2 386 -86 845 -337 1410 -771 110 -85 243 -182 295 -215 920 -596
2654 -1089 4280 -1219 606 -48 1224 -48 1755 1 1238 112 2244 464 2955 1035
452 362 744 746 1070 1404 223 450 365 847 463 1295 142 644 153 1342 31 1950
-138 687 -414 1287 -833 1813 -124 156 -415 450 -557 563 -535 427 -1101 671
-1764 761 -106 14 -200 18 -435 18 -263 0 -318 -3 -441 -23 -714 -114 -1222
-424 -1700 -1038 -190 -244 -352 -508 -669 -1089 -393 -721 -541 -949 -774
-1189 -282 -290 -574 -428 -942 -443 -592 -25 -918 252 -971 824 -38 420 120
1028 425 1628 246 485 531 886 887 1249 201 206 361 350 830 751 571 488 708
612 1006 909 273 274 406 424 546 617 216 297 354 582 414 859 29 132 27 442
-4 565 -80 317 -256 602 -543 880 -532 515 -1324 774 -2219 725z"/>
</g>
</svg>
