<?xml version="1.0" standalone="no"?>
<!DOCTYPE svg PUBLIC "-//W3C//DTD SVG 20010904//EN"
 "http://www.w3.org/TR/2001/REC-SVG-20010904/DTD/svg10.dtd">
<svg version="1.0" xmlns="http://www.w3.org/2000/svg"
 width="1344.000000pt" height="980.000000pt" viewBox="0 0 1344.000000 980.000000"
 preserveAspectRatio="xMidYMid meet">

<g transform="translate(0.000000,980.000000) scale(0.100000,-0.100000)"
fill="#000000" stroke="none">
<path d="M2932 9550 c-104 -37 -194 -100 -382 -265 -133 -116 -192 -165 -201
-165 -3 0 -9 28 -12 63 -11 112 -45 187 -97 215 -37 19 -127 9 -187 -21 -118
-60 -304 -223 -515 -451 -257 -277 -421 -502 -554 -760 -90 -173 -141 -301
-229 -566 -73 -221 -127 -350 -283 -670 -193 -397 -249 -576 -272 -867 -21
-268 20 -586 121 -947 22 -78 94 -301 159 -496 214 -635 324 -1067 515 -2015
42 -209 100 -490 127 -625 51 -242 51 -247 52 -435 1 -204 -8 -268 -49 -340
-21 -37 -44 -60 -178 -182 -68 -63 -91 -112 -91 -203 -1 -94 22 -156 73 -203
21 -19 56 -41 77 -48 49 -17 218 -17 299 0 88 19 268 78 367 121 62 27 107 40
160 44 253 23 336 40 410 88 103 65 149 157 331 658 47 129 167 458 267 730
100 272 187 508 192 524 l11 28 96 -6 c476 -32 686 -59 1011 -132 821 -181
1511 -584 1697 -990 29 -65 40 -153 24 -210 -7 -26 -40 -76 -93 -140 -179
-216 -335 -343 -504 -410 -80 -31 -248 -74 -354 -90 -256 -39 -406 -408 -220
-543 66 -48 164 -65 365 -64 146 0 188 4 294 27 388 85 689 259 1098 635 241
222 547 574 614 708 32 65 34 73 34 178 0 110 0 110 -54 243 -68 169 -81 220
-81 310 l0 72 39 0 c91 0 267 -43 531 -131 377 -125 528 -161 733 -178 141
-11 201 -35 276 -112 162 -165 198 -508 79 -743 -31 -61 -114 -142 -186 -182
-167 -93 -203 -193 -107 -290 145 -145 601 -259 850 -213 107 20 171 68 219
165 44 88 57 165 63 361 7 245 -20 482 -111 978 -35 188 -54 311 -61 387 -8
99 -48 246 -93 340 -58 124 -140 224 -344 420 -194 185 -267 272 -344 403
l-46 80 5 125 c4 92 16 174 46 315 44 209 56 279 66 373 4 34 8 62 9 62 1 0
39 -16 84 -35 887 -374 1804 -454 2516 -221 584 193 1070 613 1369 1186 64
122 135 310 206 541 192 631 229 1064 104 1227 -90 118 -307 84 -466 -73 -137
-134 -215 -295 -382 -785 -116 -339 -160 -452 -228 -584 -99 -193 -192 -294
-405 -437 -509 -342 -1080 -349 -1793 -23 -258 118 -460 233 -1014 579 -686
429 -887 536 -1200 642 -589 199 -1241 236 -2270 128 -208 -22 -576 -64 -605
-70 -26 -5 -254 -28 -455 -45 -66 -6 -228 -13 -360 -17 -372 -8 -614 23 -769
101 -115 59 -160 131 -142 230 6 34 8 35 64 41 260 27 443 84 537 166 44 39
90 134 105 218 16 87 -5 181 -76 358 -60 149 -77 207 -123 438 -55 273 -100
364 -270 550 -91 99 -105 135 -99 254 4 83 13 119 62 266 32 94 64 199 72 235
17 80 18 162 2 178 -17 17 -65 14 -126 -8z m-870 -6377 c35 -40 43 -94 43
-288 0 -202 -9 -294 -56 -580 -56 -345 -143 -717 -221 -952 -64 -194 -70 -192
-64 22 6 171 20 307 66 635 11 80 29 222 40 315 65 551 125 865 165 865 6 0
19 -8 27 -17z"/>
</g>
</svg>
