<?xml version="1.0" standalone="no"?>
<!DOCTYPE svg PUBLIC "-//W3C//DTD SVG 20010904//EN"
 "http://www.w3.org/TR/2001/REC-SVG-20010904/DTD/svg10.dtd">
<svg version="1.0" xmlns="http://www.w3.org/2000/svg"
 width="714.000000pt" height="1024.000000pt" viewBox="0 0 714.000000 1024.000000"
 preserveAspectRatio="xMidYMid meet">

<g transform="translate(0.000000,1024.000000) scale(0.100000,-0.100000)"
fill="#000000" stroke="none">
<path d="M707 10230 c-102 -26 -148 -78 -221 -248 -46 -107 -98 -187 -228
-347 -180 -223 -216 -287 -244 -433 -33 -173 -9 -235 126 -317 94 -57 194 -85
305 -85 132 0 215 24 458 134 93 42 112 35 161 -62 62 -121 84 -393 61 -750
-20 -314 -32 -402 -195 -1422 -133 -835 -171 -1117 -204 -1515 -44 -526 -22
-1157 50 -1484 35 -158 94 -337 244 -741 185 -500 174 -461 167 -609 -4 -101
-19 -195 -76 -476 -90 -445 -101 -519 -101 -690 0 -159 13 -225 62 -317 43
-80 105 -133 186 -158 132 -41 298 -43 371 -5 71 36 134 135 171 267 30 108
47 216 75 481 28 259 45 365 74 448 l18 54 65 -1 c71 -2 119 -21 142 -57 31
-47 36 -145 30 -602 -8 -501 -5 -529 57 -600 108 -122 482 -157 609 -56 108
85 198 410 239 861 11 116 31 423 31 471 0 32 23 40 271 98 91 22 194 51 229
65 70 29 100 33 101 14 0 -7 0 -155 -1 -328 -1 -328 6 -410 45 -508 34 -83
160 -120 356 -103 92 8 119 14 182 45 91 44 160 108 194 182 22 49 27 83 44
297 21 272 24 299 46 412 34 178 103 312 200 391 134 110 315 120 773 43 229
-38 437 -91 527 -133 134 -64 307 -195 395 -300 120 -144 208 -396 208 -596 0
-346 -207 -603 -665 -825 -205 -100 -330 -145 -800 -290 -527 -162 -625 -202
-694 -280 -56 -64 -33 -121 59 -145 56 -15 205 -7 385 20 590 91 962 208 1473
464 256 128 366 193 419 246 92 91 208 377 224 550 19 204 31 492 24 567 -17
195 -84 432 -168 599 -174 345 -509 601 -1022 784 -157 56 -169 62 -321 171
-221 159 -378 286 -471 382 -140 145 -189 209 -582 765 -159 224 -264 355
-381 472 -124 125 -211 189 -345 255 -253 124 -516 144 -836 64 -157 -40 -279
-86 -549 -209 -321 -147 -402 -172 -463 -146 -68 29 -111 100 -148 243 -70
275 -82 985 -33 2023 23 490 23 873 1 1065 -35 291 -79 532 -146 790 -116 445
-242 702 -448 915 -96 99 -171 152 -257 181 -62 21 -207 31 -259 19z"/>
</g>
</svg>
