<?xml version="1.0" standalone="no"?>
<!DOCTYPE svg PUBLIC "-//W3C//DTD SVG 20010904//EN"
 "http://www.w3.org/TR/2001/REC-SVG-20010904/DTD/svg10.dtd">
<svg version="1.0" xmlns="http://www.w3.org/2000/svg"
 width="1024.000000pt" height="1024.000000pt" viewBox="0 0 225.000000 225.000000"
 preserveAspectRatio="xMidYMid meet">

<g transform="translate(0.000000,225.000000) scale(0.100000,-0.100000)"
fill="#000000" stroke="none">
<path d="M292 1831 c3 -25 6 -26 75 -31 96 -7 106 -17 115 -123 8 -104 8 -842
0 -964 -9 -118 -16 -126 -117 -131 -73 -4 -75 -5 -75 -31 l0 -26 275 0 275 0
0 26 c0 26 -2 27 -66 31 -95 6 -99 13 -107 184 -4 75 -7 202 -7 281 l0 143
395 0 395 0 0 -187 c-1 -250 -12 -379 -34 -401 -11 -12 -38 -18 -91 -20 -73
-4 -75 -5 -75 -31 l0 -26 285 0 285 0 0 26 c0 26 -2 27 -75 31 -99 5 -108 14
-117 121 -9 115 -9 962 1 1021 11 65 28 76 118 76 l73 0 0 28 0 29 -286 0
-285 0 3 -26 c3 -25 7 -26 75 -31 49 -3 78 -10 89 -22 22 -21 36 -187 32 -372
l-3 -131 -390 0 -390 0 -3 160 c-2 88 0 198 3 243 9 109 21 122 110 122 65 0
65 0 65 28 l0 28 -276 1 -275 0 3 -26z"/>
</g>
</svg>
